<mxfile host="app.diagrams.net" modified="2022-10-26T06:11:04.455Z" agent="5.0 (X11)" etag="_-vSPFFWooRI4WeRrgVJ" version="20.5.1" type="github">
  <diagram id="prtHgNgQTEPvFCAcTncT" name="Docker Note">
    <mxGraphModel dx="1098" dy="611" grid="1" gridSize="10" guides="1" tooltips="1" connect="1" arrows="1" fold="1" page="1" pageScale="1" pageWidth="827" pageHeight="1169" math="0" shadow="0">
      <root>
        <mxCell id="0" />
        <mxCell id="1" parent="0" />
        <mxCell id="aAzJ9ToRv6hSn6NMdWfV-9" value="&lt;font color=&quot;#004C99&quot;&gt;&lt;i&gt;&lt;b&gt;Dockers!&lt;/b&gt;&lt;/i&gt;&lt;/font&gt;" style="text;html=1;align=center;verticalAlign=middle;resizable=0;points=[];autosize=1;strokeColor=none;fillColor=none;" vertex="1" parent="1">
          <mxGeometry x="360" y="40" width="70" height="30" as="geometry" />
        </mxCell>
        <mxCell id="aAzJ9ToRv6hSn6NMdWfV-10" value="Dockerfile" style="rounded=1;whiteSpace=wrap;html=1;fontColor=#004C99;" vertex="1" parent="1">
          <mxGeometry x="80" y="370" width="120" height="50" as="geometry" />
        </mxCell>
      </root>
    </mxGraphModel>
  </diagram>
</mxfile>
